<?xml version="1.0" encoding="UTF-8" standalone="no"?>
<!-- Created with Inkscape (http://www.inkscape.org/) -->

<svg
preserveAspectRatio="none"
   width="1519.2327"
   height="369.08713"
   viewBox="0 0 401.96363 97.654303"
   version="1.1"
   id="svg5"
   xml:space="preserve"
   xmlns:xlink="http://www.w3.org/1999/xlink"
   xmlns="http://www.w3.org/2000/svg"><defs
     id="defs2"><linearGradient
       id="linearGradient1761"><stop
         style="stop-color:#ebc165;stop-opacity:1;"
         offset="0"
         id="stop4666" /><stop
         style="stop-color:#44e7d2;stop-opacity:1;"
         offset="1"
         id="stop4668" /></linearGradient><linearGradient
       id="linearGradient1761-1"><stop
         style="stop-color:#ebc165;stop-opacity:0.5;"
         offset="0"
         id="stop1757" /><stop
         style="stop-color:#44e7d2;stop-opacity:0.5;"
         offset="1"
         id="stop1759" /></linearGradient><linearGradient
       xlink:href="#linearGradient1761"
       id="linearGradient1763"
       x1="161.36903"
       y1="2.9902477"
       x2="503.66211"
       y2="45.790638"
       gradientUnits="userSpaceOnUse" /><linearGradient
       xlink:href="#linearGradient1761-1"
       id="linearGradient4671"
       gradientUnits="userSpaceOnUse"
       x1="161.36903"
       y1="2.9902477"
       x2="503.66211"
       y2="45.790638" /><linearGradient
       xlink:href="#linearGradient1761-1"
       id="linearGradient4676"
       gradientUnits="userSpaceOnUse"
       x1="161.36903"
       y1="2.9902477"
       x2="503.66211"
       y2="45.790638" /></defs><g
     id="layer1"
     transform="translate(-106.32554)"><path
       id="path4673"
       style="fill:url(#linearGradient4676);fill-opacity:1;stroke-width:0.357715"
       d="m 106.42258,0 h 401.57741 l 0.2892,87.639362 c 0,0 -30.74208,9.926238 -64.67009,10.014667 C 410.18109,97.741181 376.59118,76.923975 347.23446,75.758865 309.37954,74.256478 279.38288,90.799278 237.49852,88.015672 190.38225,84.884357 166.85691,78.848275 143.14994,59.876948 102.58669,27.416514 106.42258,0 106.42258,0 Z" /><path
       id="path4663"
       style="fill:url(#linearGradient4671);fill-opacity:1;stroke-width:0.357715"
       d="m 123.77409,0 h 384.2259 l 0.2892,69.709469 c 0,0 -23.22309,13.107348 -57.1511,13.195777 C 417.70008,82.992398 384.11017,62.175192 354.75345,61.010082 316.89853,59.507695 286.90187,76.050495 245.01751,73.266889 197.90124,70.135574 173.73701,64.871404 150.66893,45.128165 122.54093,21.054294 123.77409,0 123.77409,0 Z" /><path
       id="rect184"
       style="fill:url(#linearGradient1763);fill-opacity:1;stroke-width:0.357715"
       d="m 139.67964,0 h 368.32035 l 0.2892,53.514727 c 0,0 -16.57168,13.685732 -50.49969,13.774161 C 424.35149,67.37604 389.31562,46.269642 359.9589,45.104532 322.10398,43.602145 289.5046,61.301712 247.62024,58.518106 200.50397,55.386791 184.78309,49.066168 161.07984,30.09019 143.65193,16.138033 139.67964,0 139.67964,0 Z" /></g></svg>
