<?xml version="1.0" encoding="UTF-8" standalone="no"?>
<!-- Created with Inkscape (http://www.inkscape.org/) -->

<svg
preserveAspectRatio="none"
   width="1547.6604"
   height="1104.0428"
   viewBox="0 0 409.48514 292.11134"
   version="1.1"
   id="svg5"
   xml:space="preserve"
   xmlns:xlink="http://www.w3.org/1999/xlink"
   xmlns="http://www.w3.org/2000/svg"><defs
     id="defs2"><linearGradient
       id="linearGradient3972"><stop
         style="stop-color:#ebc165;stop-opacity:1;"
         offset="0"
         id="stop5922" /><stop
         style="stop-color:#44e7d2;stop-opacity:1;"
         offset="1"
         id="stop5924" /></linearGradient><linearGradient
       id="linearGradient3972-1"><stop
         style="stop-color:#ebc165;stop-opacity:0.5;"
         offset="0"
         id="stop3968" /><stop
         style="stop-color:#44e7d2;stop-opacity:0.5;"
         offset="1"
         id="stop3970" /></linearGradient><linearGradient
       xlink:href="#linearGradient3972"
       id="linearGradient3974"
       x1="182.49455"
       y1="7.0852036"
       x2="501.3486"
       y2="234.10078"
       gradientUnits="userSpaceOnUse" /><linearGradient
       xlink:href="#linearGradient3972-1"
       id="linearGradient5927"
       gradientUnits="userSpaceOnUse"
       x1="182.49455"
       y1="7.0852036"
       x2="501.3486"
       y2="234.10078" /><linearGradient
       xlink:href="#linearGradient3972-1"
       id="linearGradient6015"
       gradientUnits="userSpaceOnUse"
       x1="182.49455"
       y1="7.0852036"
       x2="501.3486"
       y2="234.10078" /></defs><g
     id="layer2"
     transform="translate(-98.514856)"><path
       id="path5929"
       style="fill:url(#linearGradient6015);fill-opacity:1;stroke-width:0.264583"
       d="M 98.514856,0 H 507.99998 L 508,292.11134 c 0,0 -46.38843,-6.24917 -80.97016,-33.79858 C 394.92255,232.73461 396.47309,206.19836 372.72408,190.0012 342.44913,169.35328 317.70142,187.77857 270.58803,150.14421 224.52886,113.35197 237.63133,82.458361 212.85451,65.126841 196.05154,53.373076 179.97881,64.716547 153.90525,54.102799 110.22173,36.320574 98.514856,0 98.514856,0 Z" /><path
       id="path5919"
       style="fill:url(#linearGradient5927);fill-opacity:1;stroke-width:0.264583"
       d="M 120.63803,0 H 507.99998 L 508,270.71115 c 0,0 -36.55328,-4.55551 -68.24572,-29.46071 -32.84414,-25.81026 -30.55675,-52.1144 -54.30576,-68.31156 C 355.17357,152.29096 330.42586,170.71625 283.31247,133.08189 237.2533,96.289652 251.07875,66.986598 225.57895,48.064524 209.11161,35.844971 192.85871,47.264011 166.62969,37.040482 131.76652,23.451538 120.63803,0 120.63803,0 Z" /><path
       id="rect360"
       style="fill:url(#linearGradient3974);fill-opacity:1;stroke-width:0.264583"
       d="M 152.12941,0 H 507.99998 L 508,244.94547 c 0,0 -28.61146,-2.39283 -60.11576,-27.5356 C 416.63065,192.46719 418.33966,165.87385 394.59065,149.67669 364.3157,129.02877 339.13421,147.74326 292.02082,110.1089 245.96165,73.316659 258.63033,42.278454 234.1427,24.513147 217.54473,12.471635 201.70725,23.508578 175.62723,12.910721 167.34769,9.5462521 152.12941,0 152.12941,0 Z" /></g></svg>
