<?xml version="1.0" encoding="UTF-8" standalone="no"?>
<!-- Created with Inkscape (http://www.inkscape.org/) -->

<svg
preserveAspectRatio="none"
   width="1920"
   height="1409.7365"
   viewBox="0 0 507.99999 372.99277"
   version="1.1"
   id="svg5"
   xml:space="preserve"
   xmlns:xlink="http://www.w3.org/1999/xlink"
   xmlns="http://www.w3.org/2000/svg"><defs
     id="defs2"><linearGradient
       id="linearGradient10975"><stop
         style="stop-color:#3de8d7;stop-opacity:0.60000002;"
         offset="0.02427316"
         id="stop10971" /><stop
         style="stop-color:#e9c267;stop-opacity:0.60000002;"
         offset="1"
         id="stop10973" /></linearGradient><linearGradient
       id="linearGradient10969"><stop
         style="stop-color:#3de8d7;stop-opacity:0.60000002;"
         offset="0.02427316"
         id="stop10965" /><stop
         style="stop-color:#e9c267;stop-opacity:0.60000002;"
         offset="1"
         id="stop10967" /></linearGradient><linearGradient
       id="dsgt-theme"><stop
         style="stop-color:#3de8d7;stop-opacity:1;"
         offset="0.02427316"
         id="stop10221" /><stop
         style="stop-color:#e9c267;stop-opacity:1;"
         offset="1"
         id="stop10223" /></linearGradient><linearGradient
       id="dsgt-theme-1"><stop
         style="stop-color:#3de8d7;stop-opacity:0.8757062;"
         offset="0.02427316"
         id="stop2696" /><stop
         style="stop-color:#e9c267;stop-opacity:1;"
         offset="1"
         id="stop2698" /></linearGradient><linearGradient
       xlink:href="#dsgt-theme"
       id="linearGradient2702"
       x1="19.98184"
       y1="308.39847"
       x2="490.0701"
       y2="26.432558"
       gradientUnits="userSpaceOnUse"
       spreadMethod="pad" /><linearGradient
       xlink:href="#linearGradient10975"
       id="linearGradient10962"
       gradientUnits="userSpaceOnUse"
       x1="19.98184"
       y1="308.39847"
       x2="490.0701"
       y2="26.432558"
       spreadMethod="pad" /><linearGradient
       xlink:href="#linearGradient10975"
       id="linearGradient10980"
       gradientUnits="userSpaceOnUse"
       x1="19.98184"
       y1="308.39847"
       x2="490.0701"
       y2="26.432558"
       spreadMethod="pad" /></defs><g
     id="layer2"><path
       id="path10977"
       style="fill:url(#linearGradient10980);fill-opacity:1;stroke-width:0.264583"
       d="m 0,104.61003 c 0,0 17.93674,-17.681326 29.317154,-22.278411 C 61.840715,69.193824 103.94701,88.334802 133.81593,69.943739 155.26465,56.737214 159.26519,26.166147 175.54229,6.9433522 177.73513,4.3536729 182.98706,0 182.98706,0 H 508 v 290.06736 c 0,0 -44.68318,26.21434 -69.68358,28.80994 -32.29421,3.35286 -63.93331,-24.45379 -95.73892,-17.92989 -29.89294,6.13157 -45.77865,47.32022 -76.08159,50.91415 -34.28913,4.06669 -62.92602,-40.24976 -97.17736,-35.87618 -32.50987,4.15121 -48.56442,49.80221 -80.720195,56.13706 C 58.915871,377.97003 0,352.43666 0,352.43666 Z" /><path
       id="path10960"
       style="fill:url(#linearGradient10962);fill-opacity:1;stroke-width:0.264583"
       d="m 0,130.05891 c 0,0 24.746752,-26.18624 40.884827,-32.978508 C 73.214813,83.47321 115.4315,102.9478 145.3836,84.692522 171.61164,68.706986 174.51163,29.296315 196.96136,8.3330827 201.00765,4.554717 211.32786,0 211.32786,0 H 508 v 272.24668 c 0,0 -46.33011,28.00496 -72.41211,30.85483 -32.2757,3.52663 -63.93331,-24.45378 -95.73892,-17.92989 -29.89295,6.13157 -45.77865,47.32022 -76.08159,50.91415 -34.28913,4.06669 -62.92603,-40.24976 -97.17736,-35.87618 -32.50988,4.15121 -48.57915,49.72789 -80.720198,56.13706 C 57.14384,362.07482 0,337.68332 0,337.68332 Z" /><path
       id="path10219"
       style="fill:url(#linearGradient2702);fill-opacity:1;stroke-width:0.264583"
       d="m 0,153.19426 c 0,0 31.795783,-32.14729 52.163308,-40.4975 C 84.618476,99.390906 126.53701,118.27729 156.66208,100.30888 188.83139,81.121155 193.15195,33.09002 221.32717,8.4082392 225.88235,4.4178539 237.43174,0 237.43174,0 H 508 v 254.69068 c 0,0 -47.10277,28.21197 -73.56888,31.05932 -32.28152,3.473 -63.93331,-24.45378 -95.73892,-17.92989 -29.89294,6.13157 -45.77865,47.32023 -76.08159,50.91415 -34.28913,4.06669 -62.92602,-40.24976 -97.17736,-35.87618 -32.50987,4.15121 -48.5628,49.81041 -80.720195,56.13706 C 56.327592,344.5797 0,320.12732 0,320.12732 Z" /></g></svg>
