<?xml version="1.0" encoding="UTF-8" standalone="no"?>
<!-- Created with Inkscape (http://www.inkscape.org/) -->

<svg
preserveAspectRatio="none"
   width="606.11469"
   height="1268.0662"
   viewBox="0 0 160.36784 335.50917"
   version="1.1"
   id="svg5"
   xml:space="preserve"
   xmlns:xlink="http://www.w3.org/1999/xlink"
   xmlns="http://www.w3.org/2000/svg"><defs
     id="defs2"><linearGradient
       id="linearGradient3387"><stop
         style="stop-color:#3de8d7;stop-opacity:0.5;"
         offset="0"
         id="stop3383" /><stop
         style="stop-color:#e9c267;stop-opacity:0.5;"
         offset="1"
         id="stop3385" /></linearGradient><linearGradient
       id="linearGradient1343"><stop
         style="stop-color:#3de8d7;stop-opacity:1;"
         offset="0"
         id="stop3378" /><stop
         style="stop-color:#e9c267;stop-opacity:1;"
         offset="1"
         id="stop3380" /></linearGradient><linearGradient
       id="linearGradient1343-1"><stop
         style="stop-color:#3de8d7;stop-opacity:0.5;"
         offset="0"
         id="stop1339" /><stop
         style="stop-color:#e9c267;stop-opacity:0.5;"
         offset="1"
         id="stop1341" /></linearGradient><linearGradient
       xlink:href="#linearGradient1343"
       id="linearGradient1345"
       x1="8.5971766"
       y1="305.2327"
       x2="147.56471"
       y2="24.790487"
       gradientUnits="userSpaceOnUse" /><linearGradient
       xlink:href="#linearGradient1343-1"
       id="linearGradient3337"
       gradientUnits="userSpaceOnUse"
       x1="8.5971766"
       y1="305.2327"
       x2="147.56471"
       y2="24.790487" /><linearGradient
       xlink:href="#linearGradient3387"
       id="linearGradient3373"
       gradientUnits="userSpaceOnUse"
       x1="8.5971766"
       y1="305.2327"
       x2="147.56471"
       y2="24.790487" /></defs><g
     id="layer2"><path
       id="rect1314-9-1"
       style="fill:url(#linearGradient3373);fill-opacity:1;stroke-width:0.264583"
       d="M 0,-1e-6 H 160.36785 V 285.75 318.94933 c 0,0 -23.04901,7.85312 -35.02705,8.04311 -14.59727,0.23153 -28.427453,-9.65977 -42.975778,-8.44317 -15.942215,1.33316 -28.91566,16.35388 -44.902586,16.94525 C 24.451666,335.9758 0,324.44138 0,324.44138 V 285.75 Z" /><path
       id="rect1314-9"
       style="fill:url(#linearGradient3337);fill-opacity:1;stroke-width:0.264583"
       d="M 0,-1.5e-6 H 160.36785 V 285.75 307.08894 c 0,0 -23.04901,7.85312 -35.02705,8.04311 -14.59727,0.23153 -28.427453,-9.65977 -42.975778,-8.44317 -15.942215,1.33316 -28.91566,16.35388 -44.902586,16.94525 C 24.451666,324.11541 0,312.58099 0,312.58099 V 285.75 Z" /><path
       id="rect1314"
       style="fill:url(#linearGradient1345);stroke-width:0.264583"
       d="m 0,0 h 160.36785 v 285.75 10.29651 c 0,0 -23.04901,7.85312 -35.02705,8.04311 -14.59727,0.23153 -28.427453,-9.65977 -42.975778,-8.44317 -15.942215,1.33316 -28.91566,16.35388 -44.902586,16.94525 C 24.451666,313.07298 0,301.53856 0,301.53856 V 285.75 Z" /></g></svg>
