<?xml version="1.0" encoding="UTF-8" standalone="no"?>
<!-- Created with Inkscape (http://www.inkscape.org/) -->

<svg

preserveAspectRatio="none"
   width="1920"
   height="1352.5784"
   viewBox="0 0 507.99999 357.86969"
   version="1.1"
   id="svg5"
   xml:space="preserve"
   xmlns:xlink="http://www.w3.org/1999/xlink"
   xmlns="http://www.w3.org/2000/svg"><defs
     id="defs2"><linearGradient
       id="linearGradient3387"><stop
         style="stop-color:#3de8d7;stop-opacity:0.5;"
         offset="0"
         id="stop3383" /><stop
         style="stop-color:#e9c267;stop-opacity:0.5;"
         offset="1"
         id="stop3385" /></linearGradient><linearGradient
       id="linearGradient1343"><stop
         style="stop-color:#3de8d7;stop-opacity:1;"
         offset="0"
         id="stop3378" /><stop
         style="stop-color:#e9c267;stop-opacity:1;"
         offset="1"
         id="stop3380" /></linearGradient><linearGradient
       id="linearGradient1343-1"><stop
         style="stop-color:#3de8d7;stop-opacity:0.5;"
         offset="0"
         id="stop1339" /><stop
         style="stop-color:#e9c267;stop-opacity:0.5;"
         offset="1"
         id="stop1341" /></linearGradient><linearGradient
       xlink:href="#linearGradient1343"
       id="linearGradient1345"
       x1="32.967869"
       y1="302.79807"
       x2="491.51605"
       y2="39.92271"
       gradientUnits="userSpaceOnUse" /><linearGradient
       xlink:href="#linearGradient1343-1"
       id="linearGradient3337"
       gradientUnits="userSpaceOnUse"
       x1="32.967869"
       y1="302.79807"
       x2="491.51605"
       y2="39.92271" /><linearGradient
       xlink:href="#linearGradient3387"
       id="linearGradient3373"
       gradientUnits="userSpaceOnUse"
       x1="32.967869"
       y1="302.79807"
       x2="491.51605"
       y2="39.92271" /></defs><g
     id="layer2"><g
       id="g3392"><path
         id="rect1314-9-1"
         style="fill:url(#linearGradient3373);fill-opacity:1;stroke-width:0.264583"
         d="M 0,-1e-6 H 508 V 285.75 318.94933 c 0,0 -77.59478,20.4209 -117.302,20.76755 -44.29396,0.38669 -87.02278,-23.5704 -131.23656,-20.87842 -46.96203,2.85931 -88.67577,36.73689 -135.67391,38.92383 C 81.843122,359.71407 0,334.4185 0,334.4185 V 285.75 Z" /><path
         id="rect1314-9"
         style="fill:url(#linearGradient3337);fill-opacity:1;stroke-width:0.264583"
         d="M 0,-1.5e-6 H 508 V 285.75 307.08894 c 0,0 -77.59478,20.4209 -117.302,20.76755 -44.29396,0.3867 -87.02278,-23.57039 -131.23656,-20.87842 -46.96203,2.85931 -88.67577,36.73689 -135.67391,38.92383 C 81.843122,347.85368 0,322.55811 0,322.55811 V 285.75 Z" /><path
         id="rect1314"
         style="fill:url(#linearGradient1345);stroke-width:0.264583"
         d="m 0,0 h 508 v 285.75 10.29651 c 0,0 -77.59478,20.4209 -117.302,20.76755 -44.29396,0.38669 -87.02278,-23.5704 -131.23656,-20.87842 -46.96203,2.8593 -88.67577,36.73688 -135.67391,38.92383 C 81.843122,336.81125 0,311.51568 0,311.51568 V 285.75 Z" /></g></g></svg>
