<?xml version="1.0" encoding="UTF-8" standalone="no"?>
<!-- Created with Inkscape (http://www.inkscape.org/) -->

<svg
preserveAspectRatio="none"
   width="1920"
   height="377.37839"
   viewBox="0 0 508 99.848032"
   version="1.1"
   id="svg5"
   xml:space="preserve"
   xmlns:xlink="http://www.w3.org/1999/xlink"
   xmlns="http://www.w3.org/2000/svg"><defs
     id="defs2"><linearGradient
       id="linearGradient865"><stop
         style="stop-color:#3de8d7;stop-opacity:1;"
         offset="0"
         id="stop4461" /><stop
         style="stop-color:#e9c267;stop-opacity:1;"
         offset="1"
         id="stop4463" /></linearGradient><linearGradient
       id="linearGradient865-1"><stop
         style="stop-color:#3de8d7;stop-opacity:0.5;"
         offset="0"
         id="stop861" /><stop
         style="stop-color:#e9c267;stop-opacity:0.5;"
         offset="1"
         id="stop863" /></linearGradient><linearGradient
       xlink:href="#linearGradient865"
       id="linearGradient869"
       x1="-19.08666"
       y1="300.32104"
       x2="513.84528"
       y2="208.53154"
       gradientUnits="userSpaceOnUse"
       gradientTransform="rotate(180,254,234.8191)" /><linearGradient
       xlink:href="#linearGradient865-1"
       id="linearGradient4466"
       gradientUnits="userSpaceOnUse"
       x1="-19.08666"
       y1="300.32104"
       x2="513.84528"
       y2="208.53154"
       gradientTransform="rotate(180,254,234.8191)" /><linearGradient
       xlink:href="#linearGradient865-1"
       id="linearGradient5560"
       gradientUnits="userSpaceOnUse"
       x1="-19.08666"
       y1="300.32104"
       x2="513.84528"
       y2="208.53154"
       gradientTransform="rotate(180,254,234.8191)" /></defs><g
     id="layer1"
     transform="translate(0,-183.88821)"><path
       id="path5194"
       style="fill:url(#linearGradient5560);fill-opacity:1;stroke-width:0.264583"
       d="m 508,277.61484 c 0,0 -82.08627,6.75503 -123.19571,6.07303 C 338.86353,282.92571 293.37134,273.1313 247.4311,272.3381 192.82401,271.39525 138.38658,279.71305 83.773386,280.18399 55.836834,280.42489 0,277.61484 0,277.61484 v -93.72663 h 508 z" /><path
       id="path4458"
       style="fill:url(#linearGradient4466);fill-opacity:1;stroke-width:0.264583"
       d="m 508,261.42009 c 0,0 -82.08627,6.75503 -123.19571,6.07303 C 338.86353,266.73096 293.37134,256.93655 247.4311,256.14335 192.82401,255.2005 138.38658,263.5183 83.773386,263.98924 55.836834,264.23014 0,261.42009 0,261.42009 v -77.53188 h 508 z" /><path
       id="rect184"
       style="fill:url(#linearGradient869);fill-opacity:1;stroke-width:0.264583"
       d="m 508,244.93616 c 0,0 -82.08627,6.75503 -123.19571,6.07303 -45.94076,-0.76216 -91.43295,-10.55657 -137.37319,-11.34977 -54.60709,-0.94285 -109.04452,7.37495 -163.657714,7.84589 C 55.836834,247.74621 0,244.93616 0,244.93616 v -61.04795 h 508 z" /></g></svg>
