<?xml version="1.0" encoding="UTF-8" standalone="no"?>
<!-- Created with Inkscape (http://www.inkscape.org/) -->

<svg
preserveAspectRatio="none"
   width="255.53006mm"
   height="231.81931mm"
   viewBox="0 0 255.53006 231.8193"
   version="1.1"
   id="svg5"
   xml:space="preserve"
   xmlns:xlink="http://www.w3.org/1999/xlink"
   xmlns="http://www.w3.org/2000/svg"><defs
     id="defs2"><linearGradient
       id="linearGradient927"><stop
         style="stop-color:#3fe8d6;stop-opacity:1;"
         offset="0"
         id="stop4107" /><stop
         style="stop-color:#e9c267;stop-opacity:1;"
         offset="1"
         id="stop4109" /></linearGradient><linearGradient
       id="linearGradient927-1"><stop
         style="stop-color:#3fe8d6;stop-opacity:0.5;"
         offset="0"
         id="stop923" /><stop
         style="stop-color:#e9c267;stop-opacity:0.5;"
         offset="1"
         id="stop925" /></linearGradient><linearGradient
       xlink:href="#linearGradient927"
       id="linearGradient929"
       x1="-28.706509"
       y1="218.13611"
       x2="231.46327"
       y2="43.706562"
       gradientUnits="userSpaceOnUse" /><linearGradient
       xlink:href="#linearGradient927-1"
       id="linearGradient4112"
       gradientUnits="userSpaceOnUse"
       x1="-28.706509"
       y1="218.13611"
       x2="231.46327"
       y2="43.706562" /><linearGradient
       xlink:href="#linearGradient927-1"
       id="linearGradient4117"
       gradientUnits="userSpaceOnUse"
       x1="-28.706509"
       y1="218.13611"
       x2="231.46327"
       y2="43.706562" /></defs><g
     id="layer1"
     transform="translate(21.403746,-13.465599)"><path
       style="fill:url(#linearGradient4117);fill-opacity:1;stroke-width:0.264583"
       d="M 11.016894,50.941963 C 56.50046,6.1993041 155.63124,-0.85109238 202.24509,42.712764 242.77811,80.593663 245.22859,169.53039 206.3409,209.09851 158.52429,257.75178 48.29671,257.42968 1.69508,207.61144 -34.043603,169.40594 -26.278277,87.629613 11.016894,50.941963 Z"
       id="path4114" /><path
       style="fill:url(#linearGradient4112);fill-opacity:1;stroke-width:0.264583"
       d="M 17.957498,57.882567 C 60.157297,16.962887 150.94739,10.658998 194.14772,50.520943 231.18126,84.692646 235.24629,165.58807 199.97868,201.57952 155.12924,247.34945 50.976419,245.39042 7.7681082,198.06811 -23.823008,163.4691 -15.677952,90.497695 17.957498,57.882567 Z"
       id="path4104" /><path
       style="fill:url(#linearGradient929);fill-opacity:1;stroke-width:0.264583"
       d="M 25.765677,64.823171 C 64.020616,27.720716 145.92766,21.736478 185.47197,57.461547 219.31067,88.032065 224.76055,161.29929 193.03808,194.06053 152.01224,236.42979 55.726392,233.7012 16.154671,189.97074 -11.917831,158.94799 -4.2676857,93.951736 25.765677,64.823171 Z"
       id="path197" /></g></svg>
