<?xml version="1.0" encoding="UTF-8" standalone="no"?>
<!-- Created with Inkscape (http://www.inkscape.org/) -->

<svg
preserveAspectRatio="none"
   width="1920"
   height="384.98944"
   viewBox="0 0 508 101.86179"
   version="1.1"
   id="svg5"
   xml:space="preserve"
   xmlns:xlink="http://www.w3.org/1999/xlink"
   xmlns="http://www.w3.org/2000/svg"><defs
     id="defs2"><linearGradient
       id="linearGradient865"><stop
         style="stop-color:#3de8d7;stop-opacity:1;"
         offset="0"
         id="stop4461" /><stop
         style="stop-color:#e9c267;stop-opacity:1;"
         offset="1"
         id="stop4463" /></linearGradient><linearGradient
       id="linearGradient865-1"><stop
         style="stop-color:#3de8d7;stop-opacity:0.5;"
         offset="0"
         id="stop861" /><stop
         style="stop-color:#e9c267;stop-opacity:0.5;"
         offset="1"
         id="stop863" /></linearGradient><linearGradient
       xlink:href="#linearGradient865"
       id="linearGradient869"
       x1="-19.08666"
       y1="300.32104"
       x2="513.84528"
       y2="208.53154"
       gradientUnits="userSpaceOnUse" /><linearGradient
       xlink:href="#linearGradient865-1"
       id="linearGradient4466"
       gradientUnits="userSpaceOnUse"
       x1="-19.08666"
       y1="300.32104"
       x2="513.84528"
       y2="208.53154" /><linearGradient
       xlink:href="#linearGradient865-1"
       id="linearGradient5560"
       gradientUnits="userSpaceOnUse"
       x1="-19.08666"
       y1="300.32104"
       x2="513.84528"
       y2="208.53154" /></defs><g
     id="layer1"
     transform="translate(0,-183.8882)"><path
       id="path5194"
       style="fill:url(#linearGradient5560);fill-opacity:1;stroke-width:0.264583"
       d="m 0,192.02336 c 0,0 82.819469,-8.7795 124.35248,-8.09737 45.61765,0.74922 90.59672,12.76221 136.21642,13.37411 54.49235,0.73092 108.58218,-11.71007 163.07933,-11.60538 28.19623,0.0542 84.35177,6.32864 84.35177,6.32864 v 93.72663 H 0 Z" /><path
       id="path4458"
       style="fill:url(#linearGradient4466);fill-opacity:1;stroke-width:0.264583"
       d="m 0,202.43427 c 0,0 82.819469,-8.7795 124.35248,-8.09737 45.61765,0.74922 90.59672,12.7622 136.21642,13.37411 54.49235,0.73092 108.58218,-11.71007 163.07933,-11.60538 C 451.84446,196.1598 508,202.43427 508,202.43427 v 83.31572 H 0 Z" /><path
       id="rect184"
       style="fill:url(#linearGradient869);fill-opacity:1;stroke-width:0.264583"
       d="m 0,213.13437 c 0,0 82.819471,-8.7795 124.35248,-8.09737 45.61765,0.74921 90.59672,12.7622 136.21642,13.37411 54.49235,0.73092 108.58218,-11.71008 163.07933,-11.60538 C 451.84446,206.8599 508,213.13437 508,213.13437 v 72.61562 H 0 Z" /></g></svg>
