<?xml version="1.0" encoding="UTF-8" standalone="no"?>
<!-- Created with Inkscape (http://www.inkscape.org/) -->

<svg
preserveAspectRatio="none"
   width="538.82373"
   height="355.56519"
   viewBox="0 0 142.56378 94.076619"
   version="1.1"
   id="svg5"
   xml:space="preserve"
   xmlns:xlink="http://www.w3.org/1999/xlink"
   xmlns="http://www.w3.org/2000/svg"><defs
     id="defs2"><linearGradient
       id="linearGradient865"><stop
         style="stop-color:#3de8d7;stop-opacity:1;"
         offset="0"
         id="stop4461" /><stop
         style="stop-color:#e9c267;stop-opacity:1;"
         offset="1"
         id="stop4463" /></linearGradient><linearGradient
       id="linearGradient865-1"><stop
         style="stop-color:#3de8d7;stop-opacity:0.5;"
         offset="0"
         id="stop861" /><stop
         style="stop-color:#e9c267;stop-opacity:0.5;"
         offset="1"
         id="stop863" /></linearGradient><linearGradient
       xlink:href="#linearGradient865"
       id="linearGradient869"
       x1="-19.08666"
       y1="300.32104"
       x2="183.79922"
       y2="218.75601"
       gradientUnits="userSpaceOnUse" /><linearGradient
       xlink:href="#linearGradient865-1"
       id="linearGradient4466"
       gradientUnits="userSpaceOnUse"
       x1="-19.08666"
       y1="300.32104"
       x2="183.79922"
       y2="218.75601" /><linearGradient
       xlink:href="#linearGradient865-1"
       id="linearGradient5560"
       gradientUnits="userSpaceOnUse"
       x1="-19.08666"
       y1="300.32104"
       x2="183.79922"
       y2="218.75601" /></defs><g
     id="layer1"
     transform="translate(0,-191.67336)"><path
       id="path5194"
       style="fill:url(#linearGradient5560);fill-opacity:1;stroke-width:0.264583"
       d="m 0,197.21658 c 0,0 16.572707,-5.44152 25.159685,-5.54125 10.59589,-0.12307 20.613421,5.57341 31.19619,6.11473 15.860872,0.81128 31.566587,-4.598 47.446195,-4.346 13.01742,0.20657 38.76171,4.79497 38.76171,4.79497 l -0.10224,87.51096 H 0 Z" /><path
       id="path4458"
       style="fill:url(#linearGradient4466);fill-opacity:1;stroke-width:0.264583"
       d="m 0,203.78224 c 0,0 16.572707,-5.44152 25.159685,-5.54125 10.59589,-0.12306 20.613421,5.57342 31.19619,6.11473 15.860872,0.81129 31.566587,-4.59799 47.446195,-4.346 13.01742,0.20657 38.76171,4.79497 38.76171,4.79497 l -0.10224,80.9453 H 0 Z" /><path
       id="rect184"
       style="fill:url(#linearGradient869);fill-opacity:1;stroke-width:0.264583"
       d="m 0,210.57825 c 0,0 16.572707,-5.44152 25.159685,-5.54125 10.59589,-0.12306 20.613421,5.57342 31.19619,6.11473 15.860873,0.81129 31.566587,-4.59799 47.446195,-4.346 13.01742,0.20657 38.76171,4.79497 38.76171,4.79497 l -0.10224,74.14929 H 0 Z" /></g></svg>
